<?xml version="1.0" ?><svg height="400px" version="1.1" viewBox="0 0 400 400" width="400px" xmlns="http://www.w3.org/2000/svg" xmlns:xlink="http://www.w3.org/1999/xlink"><title/><desc/><defs><path d="M65.7975736,240 C83.0085574,297.829779 136.579587,340 200,340 C270.529438,340 328.87763,287.845883 338.582223,220 L308.186238,220 C298.781111,271.202361 253.921393,310 200,310 C153.360351,310 113.500188,280.973569 97.4988063,240 L115,240 L79,190 L43,240 L65.7975736,240 L65.7975736,240 Z M334.202426,160 C316.991443,102.170221 263.420413,60 200,60 C129.470562,60 71.1223704,112.154117 61.4177772,180 L91.8137623,180 C101.218889,128.797639 146.078607,90 200,90 C246.639649,90 286.499812,119.026431 302.501194,160 L285,160 L321,210 L357,160 L334.202426,160 L334.202426,160 Z" id="path-1"/><filter filterUnits="objectBoundingBox" height="200%" id="filter-2" width="200%" x="-50%" y="-50%"><feOffset dx="0" dy="4" in="SourceAlpha" result="shadowOffsetOuter1"/><feGaussianBlur in="shadowOffsetOuter1" result="shadowBlurOuter1" stdDeviation="2"/><feColorMatrix in="shadowBlurOuter1" type="matrix" values="0 0 0 0 0   0 0 0 0 0   0 0 0 0 0  0 0 0 0.5 0"/></filter></defs><g fill="none" fill-rule="evenodd" id="Page-1" stroke="none" stroke-width="1"><g id="radial_arrows"><path d="M200,400 C310.45695,400 400,310.45695 400,200 C400,89.54305 310.45695,0 200,0 C89.54305,0 0,89.54305 0,200 C0,310.45695 89.54305,400 200,400 Z" fill="#AAD8B0" id="Background-Copy-2"/><g id="Combined-Shape"><use fill="black" fill-opacity="1" filter="url(#filter-2)" xlink:href="#path-1"/><use fill="#697F9B" fill-rule="evenodd" xlink:href="#path-1"/></g></g></g></svg>